{
  "accessors": [
    {
      "bufferView": 2,
      "componentType": 5126,
      "count": 45025,
      "max": [
        0.3187282383441925,
        0.8189301490783691,
        0.8790267109870911
      ],
      "min": [
        -0.28883442282676697,
        -0.8250212073326111,
        -0.6467956304550171
      ],
      "type": "VEC3"
    },
    {
      "bufferView": 2,
      "byteOffset": 540300,
      "componentType": 5126,
      "count": 45025,
      "max": [
        0.9999998211860657,
        0.9999992847442627,
        0.9850914478302002
      ],
      "min": [
        -0.9992485046386719,
        -0.9999996423721313,
        -0.9851993918418884
      ],
      "type": "VEC3"
    },
    {
      "bufferView": 1,
      "componentType": 5126,
      "count": 45025,
      "max": [
        0.9999217987060547,
        0.7522863149642944
      ],
      "min": [
        0.00047800876200199127,
        0.0004446204984560609
      ],
      "type": "VEC2"
    },
    {
      "bufferView": 0,
      "componentType": 5125,
      "count": 262722,
      "type": "SCALAR"
    },
    {
      "bufferView": 2,
      "byteOffset": 1080600,
      "componentType": 5126,
      "count": 57535,
      "max": [
        0.31917428970336914,
        0.5614810585975647,
        0.9115625023841858
      ],
      "min": [
        -0.29035210609436035,
        -0.807287871837616,
        -0.9066769480705261
      ],
      "type": "VEC3"
    },
    {
      "bufferView": 2,
      "byteOffset": 1771020,
      "componentType": 5126,
      "count": 57535,
      "max": [
        0.9999967217445374,
        0.9819440245628357,
        0.9999956488609314
      ],
      "min": [
        -0.9999973773956299,
        -0.9913561940193176,
        -0.999772846698761
      ],
      "type": "VEC3"
    },
    {
      "bufferView": 1,
      "byteOffset": 360200,
      "componentType": 5126,
      "count": 57535,
      "max": [
        0.9893510937690735,
        0.9997035264968872
      ],
      "min": [
        0.0001913011074066162,
        0.00017735383880790323
      ],
      "type": "VEC2"
    },
    {
      "bufferView": 0,
      "byteOffset": 1050888,
      "componentType": 5125,
      "count": 337278,
      "type": "SCALAR"
    }
  ],
  "asset": {
    "extras": {
      "author": "Frank McMains (https://sketchfab.com/frankmcmains)",
      "license": "CC-BY-4.0 (http://creativecommons.org/licenses/by/4.0/)",
      "source": "https://sketchfab.com/3d-models/small-greenstone-celt-c1562bc7095442c39681fc37990371ab",
      "title": "Small Greenstone Celt"
    },
    "generator": "Sketchfab-11.83.0",
    "version": "2.0"
  },
  "bufferViews": [
    {
      "buffer": 0,
      "byteLength": 2400000,
      "name": "floatBufferViews",
      "target": 34963
    },
    {
      "buffer": 0,
      "byteLength": 820480,
      "byteOffset": 2400000,
      "byteStride": 8,
      "name": "floatBufferViews",
      "target": 34962
    },
    {
      "buffer": 0,
      "byteLength": 2461440,
      "byteOffset": 3220480,
      "byteStride": 12,
      "name": "floatBufferViews",
      "target": 34962
    }
  ],
  "buffers": [
    {
      "byteLength": 5681920,
      "uri": "scene.bin"
    }
  ],
  "images": [
    {
      "uri": "textures/material0_baseColor.jpeg"
    },
    {
      "uri": "textures/material1_baseColor.jpeg"
    }
  ],
  "materials": [
    {
      "doubleSided": true,
      "name": "material0",
      "pbrMetallicRoughness": {
        "baseColorTexture": {
          "index": 0
        },
        "metallicFactor": 0.0
      }
    },
    {
      "doubleSided": true,
      "name": "material1",
      "pbrMetallicRoughness": {
        "baseColorTexture": {
          "index": 1
        },
        "metallicFactor": 0.0,
        "roughnessFactor": 0.9577051494623774
      }
    }
  ],
  "meshes": [
    {
      "name": "Model_material0_0",
      "primitives": [
        {
          "attributes": {
            "NORMAL": 1,
            "POSITION": 0,
            "TEXCOORD_0": 2
          },
          "indices": 3,
          "material": 0,
          "mode": 4
        }
      ]
    },
    {
      "name": "Model_material1_0",
      "primitives": [
        {
          "attributes": {
            "NORMAL": 5,
            "POSITION": 4,
            "TEXCOORD_0": 6
          },
          "indices": 7,
          "material": 1,
          "mode": 4
        }
      ]
    }
  ],
  "nodes": [
    {
      "children": [
        1
      ],
      "matrix": [
        1.0,
        0.0,
        0.0,
        0.0,
        0.0,
        2.220446049250313e-16,
        -1.0,
        0.0,
        0.0,
        1.0,
        2.220446049250313e-16,
        0.0,
        0.0,
        0.0,
        0.0,
        1.0
      ],
      "name": "Sketchfab_model"
    },
    {
      "children": [
        2
      ],
      "matrix": [
        1.0,
        0.0,
        0.0,
        0.0,
        0.0,
        -1.0,
        0.0,
        0.0,
        0.0,
        0.0,
        -1.0,
        0.0,
        0.0,
        0.0,
        0.0,
        1.0
      ],
      "name": "model.fbx"
    },
    {
      "children": [
        3
      ],
      "name": "RootNode"
    },
    {
      "children": [
        4,
        5
      ],
      "name": "Model"
    },
    {
      "mesh": 0,
      "name": "Model_material0_0"
    },
    {
      "mesh": 1,
      "name": "Model_material1_0"
    }
  ],
  "samplers": [
    {
      "magFilter": 9729,
      "minFilter": 9987,
      "wrapS": 10497,
      "wrapT": 10497
    }
  ],
  "scene": 0,
  "scenes": [
    {
      "name": "Sketchfab_Scene",
      "nodes": [
        0
      ]
    }
  ],
  "textures": [
    {
      "sampler": 0,
      "source": 0
    },
    {
      "sampler": 0,
      "source": 1
    }
  ]
}
